HIERARCHY
ROOT hip
{
	OFFSET 0.000000 0.000000 0.000000 
	CHANNELS 6 Xposition Yposition Zposition Xrotation Zrotation Yrotation
	JOINT abdomen
	{
		OFFSET 0.000000 3.402643 0.000000 
		CHANNELS 3 Xrotation Zrotation Yrotation
		JOINT chest
		{
			OFFSET 0.000000 8.438565 -0.680529 
			CHANNELS 3 Xrotation Zrotation Yrotation
			JOINT neck
			{
				OFFSET 0.000000 10.207942 -0.272212 
				CHANNELS 3 Xrotation Zrotation Yrotation
				JOINT head
				{
					OFFSET 0.000000 3.130431 0.000000 
					CHANNELS 3 Xrotation Zrotation Yrotation
					End Site
					{
						OFFSET 0.000000 3.130435 0.000000 
					}
				}
			}
			JOINT lCollar
			{
				OFFSET 3.470700 6.669187 -0.816635 
				CHANNELS 3 Yrotation Zrotation Xrotation
				JOINT lShldr
				{
					OFFSET 3.198488 0.000000 0.000000 
					CHANNELS 3 Zrotation Yrotation Xrotation
					JOINT lForeArm
					{
						OFFSET 10.139888 0.000000 0.000000 
						CHANNELS 3 Yrotation Zrotation Xrotation
						JOINT lHand
						{
							OFFSET 8.370511 0.000000 0.000000 
							CHANNELS 3 Zrotation Yrotation Xrotation
							End Site
							{
								OFFSET 4.083176 0.000000 0.000000 
							}
						}
					}
				}
			}
			JOINT rCollar
			{
				OFFSET -3.470700 6.669187 -0.816635 
				CHANNELS 3 Yrotation Zrotation Xrotation
				JOINT rShldr
				{
					OFFSET -3.198488 0.000000 0.000000 
					CHANNELS 3 Zrotation Yrotation Xrotation
					JOINT rForeArm
					{
						OFFSET -10.139888 0.000000 0.000000 
						CHANNELS 3 Yrotation Zrotation Xrotation
						JOINT rHand
						{
							OFFSET -8.370511 0.000000 0.000000 
							CHANNELS 3 Zrotation Yrotation Xrotation
							End Site
							{
								OFFSET -4.083176 0.000000 0.000000 
							}
						}
					}
				}
			}
		}
	}
	JOINT lThigh
	{
		OFFSET 5.308129 -1.633274 1.361059 
		CHANNELS 3 Xrotation Zrotation Yrotation
		JOINT lShin
		{
			OFFSET -2.041588 -20.007561 0.000000 
			CHANNELS 3 Xrotation Zrotation Yrotation
			JOINT lFoot
			{
				OFFSET 0.000000 -19.190928 -1.224953 
				CHANNELS 3 Xrotation Yrotation Zrotation
				End Site
				{
					OFFSET 0.000000 -2.449906 4.627600 
				}
			}
		}
	}
	JOINT rThigh
	{
		OFFSET -5.308129 -1.633274 1.361059 
		CHANNELS 3 Xrotation Zrotation Yrotation
		JOINT rShin
		{
			OFFSET 2.041588 -20.007561 0.000000 
			CHANNELS 3 Xrotation Zrotation Yrotation
			JOINT rFoot
			{
				OFFSET 0.000000 -19.190928 -1.224953 
				CHANNELS 3 Xrotation Yrotation Zrotation
				End Site
				{
					OFFSET 0.000000 -2.449906 4.627600 
				}
			}
		}
	}
}
MOTION
Frames: 13
Frame Time: 0.033333
-1.404631 48.160557 -7.360178 -9.387554 -1.439593 -12.513848 0.000000 0.000000 0.000000 3.584661 0.623982 -10.576708 -15.383073 -2.953801 7.392574 19.112391 0.544594 5.234694 -3.521967 9.154817 6.304141 -81.445061 -12.066022 -31.208542 -55.355698 -2.000748 14.274440 12.538669 2.378249 -8.976727 3.089181 -14.089146 8.026228 96.310905 9.872190 17.662434 51.015400 -1.994164 61.912586 -7.767354 -19.878807 -8.815154 -18.222923 14.580420 10.430969 46.514957 -2.847944 -19.181479 -9.693219 -1.025928 7.568934 19.842779 -13.545284 -20.911095 27.403694 -2.417579 15.961553 -28.919079 3.414981 -11.282094 
-1.363368 47.934216 -7.065923 -9.968135 -1.446660 -11.175666 0.000000 0.000000 0.000000 3.178833 0.909999 -11.222060 -14.230214 -3.303310 7.277686 18.927813 0.466945 5.029527 -3.521967 9.154817 6.304141 -82.437370 -12.235843 -29.777611 -54.284477 -1.138891 14.715429 11.551668 2.928493 -8.870392 3.089181 -14.089146 8.026228 96.464714 9.154827 16.846281 49.991871 -2.671954 61.086357 -8.729581 -19.921125 -8.746370 -18.381998 14.143275 9.788836 48.019230 -2.514863 -19.224522 -10.575230 -1.152556 8.203688 20.998684 -13.142867 -21.188124 27.914223 -2.326756 13.677147 -30.249289 3.456654 -11.020162 
-1.318899 47.743649 -6.856436 -10.102490 -1.766843 -10.493477 0.000000 0.000000 0.000000 2.471862 1.389597 -11.087076 -12.832842 -3.421525 7.014472 18.424883 0.428159 4.834142 -3.521967 9.154817 6.304141 -83.422890 -12.477026 -28.092745 -53.232613 -0.418631 14.803839 11.264244 3.057937 -8.849425 3.089181 -14.089146 8.026228 96.765518 8.625618 16.065828 48.415955 -3.689310 60.874073 -9.262496 -19.829498 -8.714801 -18.772308 14.201764 9.349729 49.326664 -2.241966 -19.174995 -11.542849 -1.326432 8.905140 21.336344 -12.626532 -20.947596 28.421520 -2.429016 12.651217 -30.661833 3.453151 -10.862767 
-1.223447 47.619350 -6.660817 -10.425266 -1.692834 -9.965488 0.000000 0.000000 0.000000 2.577426 1.265601 -10.949954 -12.809147 -2.871893 6.531355 18.690605 -0.009733 4.716797 -3.521967 9.154817 6.304141 -84.027145 -12.241838 -27.197210 -53.311314 -0.441516 15.611177 10.830610 2.176501 -8.830993 3.089181 -14.089146 8.026228 97.024193 8.415679 15.330778 47.151733 -4.349519 61.032753 -9.527219 -19.781771 -8.692518 -18.802345 13.714587 8.849636 50.202545 -2.035041 -19.064116 -11.993649 -1.407056 9.220855 21.808897 -12.439607 -20.722773 28.893080 -2.849992 10.917494 -31.345648 3.486032 -10.737805 
-1.173411 47.551140 -6.537530 -9.939437 -1.257279 -10.647297 0.000000 0.000000 0.000000 1.805732 0.952279 -9.942778 -12.728601 -2.746611 6.374350 18.824678 0.077869 4.638681 -3.521967 9.154817 6.304141 -84.570389 -11.697083 -26.847769 -53.487762 -0.516173 15.236040 10.934743 2.016207 -8.851616 3.089181 -14.089146 8.026228 97.391548 8.112385 15.061817 46.084541 -4.677463 60.961746 -10.143896 -20.098215 -8.629905 -19.089548 13.572041 9.259392 50.483948 -2.318591 -18.744425 -12.551757 -1.505729 9.475421 20.883959 -12.752483 -20.225792 29.516918 -3.621170 9.698647 -31.762053 3.450479 -10.649340 
-1.164130 47.550514 -6.450084 -10.159209 -1.188623 -11.018086 0.000000 0.000000 0.000000 2.283265 0.933973 -9.610633 -13.497529 -2.620243 6.412918 19.270609 0.155725 4.697302 -3.521967 9.154817 6.304141 -84.693352 -11.194056 -26.900640 -53.822891 -0.649055 15.192690 10.887733 2.127178 -8.840404 3.089181 -14.089146 8.026228 97.977058 8.316540 14.986315 45.231888 -4.789523 60.960434 -10.695115 -20.071833 -8.588961 -18.618443 13.618402 9.582252 50.464458 -2.445664 -18.693380 -12.641032 -1.508772 9.475594 20.975645 -12.539460 -19.592817 29.561529 -4.263155 8.551276 -32.511978 3.521349 -10.553562 
-1.151709 47.627148 -6.303903 -10.728522 -1.659570 -10.795767 0.000000 0.000000 0.000000 2.870718 1.299024 -9.826760 -13.798599 -2.688123 6.422666 19.479921 0.330948 4.628998 -3.521967 9.154817 6.304141 -84.955582 -10.855402 -26.514534 -53.730801 -0.407275 15.552479 10.995069 2.136080 -8.847876 3.089181 -14.089146 8.026228 98.266747 8.254491 14.931888 44.924023 -5.074641 60.920254 -11.042027 -20.225523 -8.559838 -17.786165 13.772071 9.486230 50.336189 -2.221366 -18.807384 -12.696596 -1.523909 9.436138 22.247084 -11.804721 -19.266935 28.332249 -4.308488 7.714555 -32.178665 3.454319 -10.426437 
-1.069334 47.692711 -6.335767 -10.447010 -1.476581 -10.941373 0.000000 0.000000 0.000000 2.517906 1.097436 -9.679496 -13.869307 -2.456374 6.177483 19.383211 -0.019469 4.560546 -3.521967 9.154817 6.304141 -84.991325 -10.938884 -25.884985 -53.261059 -0.096533 15.622302 11.159363 2.285692 -8.856839 3.089181 -14.089146 8.026228 98.443336 8.165521 14.782963 45.250896 -5.058049 60.776295 -11.523779 -20.742393 -8.501372 -17.974863 13.433824 9.351204 49.944725 -2.228890 -18.476854 -12.570393 -1.445612 9.234018 21.875942 -12.087343 -19.437519 28.232513 -4.224844 7.811568 -31.771643 3.394490 -10.375207 
-0.960284 47.751129 -6.544043 -9.608083 -0.727327 -11.485420 0.000000 0.000000 0.000000 2.895015 0.761687 -9.141370 -16.342892 -2.514996 6.099428 20.176517 0.009738 4.316408 -3.521967 9.154817 6.304141 -84.755272 -11.165795 -26.442333 -54.234226 -0.665772 16.041565 10.945616 3.138232 -8.810991 3.089181 -14.089146 8.026228 97.695541 8.147718 14.007307 47.862637 -3.362193 60.732540 -11.892630 -20.692526 -8.487703 -18.802025 12.894093 9.555280 49.341164 -2.543246 -18.226381 -12.004176 -1.331812 8.758723 20.305330 -13.025415 -19.674623 28.784948 -4.309685 8.015821 -32.205124 3.474684 -10.470045 
-0.966636 47.826195 -6.719710 -9.566021 -0.908105 -11.808231 0.000000 0.000000 0.000000 3.606219 0.974304 -8.956264 -17.623434 -2.427515 6.118528 20.827139 -0.038952 4.316405 -3.521967 9.154817 6.304141 -84.351761 -11.803295 -26.511013 -53.830654 -0.455325 16.218615 11.055940 2.878189 -8.829878 3.089181 -14.089146 8.026228 97.353561 8.507890 13.747517 49.428539 -2.533176 60.768208 -11.219861 -20.921423 -8.524764 -18.740061 13.173669 9.747295 48.900520 -2.621484 -18.181597 -11.612052 -1.283510 8.482475 20.008633 -12.812561 -19.331623 28.672083 -4.409351 7.982485 -32.127525 3.470915 -10.461073 
-1.005282 47.889465 -6.888286 -9.547991 -1.155555 -12.063178 0.000000 0.000000 0.000000 4.014131 1.244607 -8.898398 -17.838154 -2.485409 6.196994 20.844429 -0.068163 4.345700 -3.521967 9.154817 6.304141 -84.069313 -12.302259 -26.799768 -53.535507 -0.153185 16.598042 11.186829 3.421756 -8.817497 3.089181 -14.089146 8.026228 97.027534 8.879142 13.576215 51.030930 -1.582038 60.518883 -11.522847 -21.515461 -8.487830 -18.588970 13.598694 9.966373 48.385376 -2.715901 -18.311790 -11.475862 -1.268828 8.443941 19.743467 -12.489401 -18.964828 28.605347 -4.513424 7.753871 -32.168926 3.441701 -10.424180 
-1.038661 47.983654 -7.079223 -9.391700 -1.364803 -12.230251 0.000000 0.000000 0.000000 4.421157 1.437222 -8.987159 -18.285046 -2.494416 6.343761 21.025391 0.000000 4.443359 -3.521967 9.154817 6.304141 -83.750633 -12.691439 -26.874542 -53.598621 -0.238088 14.827250 13.035104 3.413198 -8.962543 3.089181 -14.089146 8.026228 96.685402 9.269975 13.254042 52.775124 -0.719399 60.627251 -11.573523 -21.687174 -8.469221 -18.600460 13.951879 10.127362 47.732914 -2.769362 -18.480827 -11.044991 -1.174564 8.190160 19.341421 -12.234907 -18.750463 28.509563 -4.440691 7.712955 -31.868061 3.388778 -10.391639 
-1.031220 48.067986 -7.282712 -9.410134 -1.318810 -11.878325 0.000000 0.000000 0.000000 4.834821 1.426324 -9.299561 -18.806927 -2.513589 6.392540 21.435547 0.000000 4.433594 -3.521967 9.154817 6.304141 -83.566322 -13.232243 -27.180519 -53.461365 0.052458 16.009319 12.930319 3.936654 -8.932021 3.089181 -14.089146 8.026228 96.330154 9.677941 13.026325 55.012711 0.295297 58.951294 -14.153075 -22.179314 -8.206045 -18.687065 13.784595 9.933291 47.153446 -2.728385 -18.550406 -10.379511 -1.088745 7.722903 19.149992 -12.158611 -18.871452 28.595913 -4.214479 7.142983 -31.499409 3.327887 -10.212407 
